<svg xmlns="http://www.w3.org/2000/svg" viewBox="0 0 100 100">
  <path class="background" d="M11 18c3.8659932 0 7-3.1340068 7-7 0-3.86599325-3.1340068-7-7-7-3.86599325 0-7 3.13400675-7 7 0 3.8659932 3.13400675 7 7 7Zm48 25c3.8659932 0 7-3.1340068 7-7s-3.1340068-7-7-7-7 3.1340068-7 7 3.1340068 7 7 7Zm-43-7c1.6568542 0 3-1.3431458 3-3s-1.3431458-3-3-3-3 1.3431458-3 3 1.3431458 3 3 3Zm63 31c1.6568542 0 3-1.3431458 3-3s-1.3431458-3-3-3-3 1.3431458-3 3 1.3431458 3 3 3ZM34 90c1.6568542 0 3-1.3431458 3-3s-1.3431458-3-3-3-3 1.3431458-3 3 1.3431458 3 3 3Zm56-76c1.6568542 0 3-1.3431458 3-3 0-1.65685425-1.3431458-3-3-3s-3 1.34314575-3 3c0 1.6568542 1.3431458 3 3 3ZM12 86c2.209139 0 4-1.790861 4-4s-1.790861-4-4-4-4 1.790861-4 4 1.790861 4 4 4Zm28-65c2.209139 0 4-1.790861 4-4s-1.790861-4-4-4-4 1.790861-4 4 1.790861 4 4 4Zm23-11c2.7614237 0 5-2.23857625 5-5s-2.2385763-5-5-5-5 2.23857625-5 5 2.2385763 5 5 5Zm-6 60c2.209139 0 4-1.790861 4-4s-1.790861-4-4-4-4 1.790861-4 4 1.790861 4 4 4Zm29 22c2.7614237 0 5-2.2385763 5-5s-2.2385763-5-5-5-5 2.2385763-5 5 2.2385763 5 5 5ZM32 63c2.7614237 0 5-2.2385763 5-5s-2.2385763-5-5-5-5 2.2385763-5 5 2.2385763 5 5 5Zm57-13c2.7614237 0 5-2.2385763 5-5s-2.2385763-5-5-5-5 2.2385763-5 5 2.2385763 5 5 5Zm-9-21c1.1045695 0 2-.8954305 2-2s-.8954305-2-2-2-2 .8954305-2 2 .8954305 2 2 2ZM60 91c1.1045695 0 2-.8954305 2-2s-.8954305-2-2-2-2 .8954305-2 2 .8954305 2 2 2ZM35 41c1.1045695 0 2-.8954305 2-2s-.8954305-2-2-2-2 .8954305-2 2 .8954305 2 2 2ZM12 60c1.1045695 0 2-.8954305 2-2s-.8954305-2-2-2-2 .8954305-2 2 .8954305 2 2 2Z" fill-rule="evenodd"/>
  <style>

  .background {
  transform-orgin: center;
  animation-name: move;
  animation-duration: 5s;
  animation-iteration-count: infinite;
}

@keyframes move {
  0% {
    transform: rotate(0deg) scale(1);
    transform-origin: center;
    fill: red;
  }

  25%{
    fill: pink
  }

  50% {
    transform: rotate(180deg) scale(1.5);
    transform-origin: center;
    fill: blue;
  }

  75%{
    fill: orange
  }

  100% {
    transform: rotate(360deg) scale(1);
    transform-origin: center;
    fill: red;
  }
}
  </style>
</svg>
